HIERARCHY
ROOT joint_Root
{
  OFFSET 0 0 0
  CHANNELS 6 Xposition Yposition Zposition Zrotation Xrotation Yrotation
  JOINT Hips
  {
    OFFSET 0.847027 93.984 -452.225
    CHANNELS 6 Xposition Yposition Zposition Zrotation Xrotation Yrotation
    JOINT Spine
    {
      OFFSET 15.7357 0 0
      CHANNELS 6 Xposition Yposition Zposition Zrotation Xrotation Yrotation
      JOINT Chest
      {
        OFFSET 8.98455 -0.406207 0
        CHANNELS 6 Xposition Yposition Zposition Zrotation Xrotation Yrotation
        JOINT Neck
        {
          OFFSET 16.3773 0 0
          CHANNELS 6 Xposition Yposition Zposition Zrotation Xrotation Yrotation
          JOINT Head
          {
            OFFSET 6.45672 0 0
            CHANNELS 6 Xposition Yposition Zposition Zrotation Xrotation Yrotation
            End Site
            {
              OFFSET 0 0 0
            }
          }
        }
        JOINT Shoulder_L
        {
          OFFSET 12.9942 -0.242716 4.98039
          CHANNELS 6 Xposition Yposition Zposition Zrotation Xrotation Yrotation
          JOINT UpperArm_L
          {
            OFFSET 5.34809 0 0
            CHANNELS 6 Xposition Yposition Zposition Zrotation Xrotation Yrotation
            JOINT LowerArm_L
            {
              OFFSET 24.3286 1.87007e-05 0
              CHANNELS 6 Xposition Yposition Zposition Zrotation Xrotation Yrotation
              JOINT Hand_L
              {
                OFFSET 22.2916 0 0
                CHANNELS 6 Xposition Yposition Zposition Zrotation Xrotation Yrotation
                End Site
                {
                  OFFSET 0 0 0
                }
              }
            }
          }
        }
        JOINT Shoulder_R
        {
          OFFSET 12.9945 -0.242716 -4.98039
          CHANNELS 6 Xposition Yposition Zposition Zrotation Xrotation Yrotation
          JOINT UpperArm_R
          {
            OFFSET -5.34813 0 0
            CHANNELS 6 Xposition Yposition Zposition Zrotation Xrotation Yrotation
            JOINT LowerArm_R
            {
              OFFSET -24.3289 0.000322201 0
              CHANNELS 6 Xposition Yposition Zposition Zrotation Xrotation Yrotation
              JOINT Hand_R
              {
                OFFSET -22.2915 -0.000108084 0
                CHANNELS 6 Xposition Yposition Zposition Zrotation Xrotation Yrotation
                End Site
                {
                  OFFSET 0 0 0
                }
              }
            }
          }
        }
      }
    }
    JOINT UpperLeg_L
    {
      OFFSET -2.19248 -6.46944 0
      CHANNELS 6 Xposition Yposition Zposition Zrotation Xrotation Yrotation
      JOINT LowerLeg_L
      {
        OFFSET 39.0811 0 -1.23785e-05
        CHANNELS 6 Xposition Yposition Zposition Zrotation Xrotation Yrotation
        JOINT Foot_L
        {
          OFFSET 40.9854 0 -1.26872e-05
          CHANNELS 6 Xposition Yposition Zposition Zrotation Xrotation Yrotation
          JOINT Toes_L
          {
            OFFSET 11.7543 0 0
            CHANNELS 6 Xposition Yposition Zposition Zrotation Xrotation Yrotation
            End Site
            {
              OFFSET 0 0 0
            }
          }
        }
      }
    }
    JOINT UpperLeg_R
    {
      OFFSET -2.19251 6.46944 0
      CHANNELS 6 Xposition Yposition Zposition Zrotation Xrotation Yrotation
      JOINT LowerLeg_R
      {
        OFFSET -39.0811 -0.00228153 -0.0401928
        CHANNELS 6 Xposition Yposition Zposition Zrotation Xrotation Yrotation
        JOINT Foot_R
        {
          OFFSET -40.9854 0 0
          CHANNELS 6 Xposition Yposition Zposition Zrotation Xrotation Yrotation
          JOINT Toes_R
          {
            OFFSET -11.7543 0 0
            CHANNELS 6 Xposition Yposition Zposition Zrotation Xrotation Yrotation
            End Site
            {
              OFFSET 0 0 0
            }
          }
        }
      }
    }
  }
}
MOTION
Frames:	4
Frame Time:	0.0333333
0 0 0 0 0 -0 -1.52618 94.1516 -16.3951 90.2512 1.07264 -23.3836 15.7357 5.1072e-06 -5.51765e-07 87.3707 78.2505 -86.9282 8.98455 -0.406207 -4.3199e-07 15.7142 -1.03205 1.02817 16.3773 -1.3905e-06 -6.99897e-07 17.6711 -1.79441 -0.137135 6.45672 -1.25837e-06 -1.02172e-07 16.5203 -2.19429 -1.11254 12.9942 -0.242716 4.98039 -92.6363 8.77118 -88.1981 5.34809 -7.22636e-06 -6.2814e-07 -65.1173 14.0503 2.49317 24.3286 1.87007e-05 4.90208e-06 -11.7675 -10.2922 -49.3814 22.2916 -9.88446e-07 4.63217e-06 20.9206 5.6386 -14.0103 12.9945 -0.242716 -4.98039 86.9551 10.4118 -88.5986 -5.34813 -1.25947e-06 -3.79883e-06 -63.4602 15.5889 4.11325 -24.3289 0.000322201 -8.65921e-06 -2.88356 -2.50823 -49.0034 -22.2915 -0.000108084 -4.47941e-06 15.3663 5.56063 -9.21691 -2.19248 -6.46944 -1.22533e-07 -177.571 -1.37288 -33.1005 39.0811 -6.73843e-06 -1.23785e-05 0.00413028 -0.0612082 3.97959 40.9854 -6.48686e-06 -1.26872e-05 -3.76751 2.087 -45.7257 11.7543 -2.30145e-07 3.05095e-06 -0.0355656 0.0537947 -15.6085 -2.19251 6.46944 -1.45247e-06 -174.25 11.8488 146.85 -39.0811 -0.00228153 -0.0401928 0.00116269 -0.0376399 1.29411 -40.9854 7.72618e-06 5.99936e-06 -0.708531 5.57018 -43.4239 -11.7543 -5.6619e-06 -5.58687e-06 -0.121939 0.132455 -15.2494 
0 0 0 0 0 -0 -1.50219 94.1461 -16.4676 90.2721 0.982748 -23.4332 15.7357 5.1072e-06 -5.51765e-07 87.3619 78.2788 -86.9241 8.98455 -0.406207 -4.3199e-07 15.6575 -1.03365 1.01858 16.3773 -1.3905e-06 -6.99897e-07 17.6942 -1.82827 -0.160095 6.45672 -1.25837e-06 -1.02172e-07 16.3015 -2.24109 -1.17292 12.9942 -0.242716 4.98039 -92.6365 8.7949 -88.2394 5.34809 -7.22636e-06 -6.2814e-07 -65.0974 14.0006 2.41866 24.3286 1.87007e-05 4.90208e-06 -11.8458 -10.2547 -49.6767 22.2916 -9.88446e-07 4.63217e-06 20.9995 5.63818 -13.9761 12.9945 -0.242716 -4.98039 86.9462 10.4469 -88.6052 -5.34813 -1.25947e-06 -3.79883e-06 -63.4694 15.6461 4.0225 -24.3289 0.000322201 -8.65921e-06 -2.81885 -2.46196 -48.8854 -22.2915 -0.000108084 -4.47941e-06 15.4015 5.56121 -9.24628 -2.19248 -6.46944 -1.22534e-07 -177.652 -1.45222 -33.1512 39.0811 -6.73843e-06 -1.23785e-05 0.00389163 -0.0608763 3.90798 40.9854 -6.48686e-06 -1.26872e-05 -3.76323 2.07968 -45.6765 11.7543 -2.30145e-07 3.05095e-06 -0.0377953 0.0571083 -15.5484 -2.19251 6.46944 -1.45247e-06 -174.159 12.0068 146.768 -39.0811 -0.00228153 -0.0401928 -0.000510482 -0.0377024 1.20761 -40.9854 7.72618e-06 5.99936e-06 -0.737596 5.86274 -43.3325 -11.7543 -5.6619e-06 -5.58687e-06 -0.123423 0.134046 -15.2334 
0 0 0 0 0 -0 -1.4734 94.1402 -16.4493 90.2872 0.9404 -23.3078 15.7357 5.1072e-06 -5.51765e-07 87.3134 78.3305 -86.8585 8.98455 -0.406207 -4.3199e-07 15.5534 -1.04784 1.05386 16.3773 -1.3905e-06 -6.99897e-07 17.6925 -1.82676 -0.20086 6.45672 -1.25837e-06 -1.02172e-07 16.1944 -2.2612 -1.23144 12.9942 -0.242716 4.98039 -92.6297 8.82591 -88.3355 5.34809 -7.22636e-06 -6.2814e-07 -65.0765 14.0729 2.29994 24.3286 1.87007e-05 4.90208e-06 -11.6989 -10.1167 -49.6928 22.2916 -9.88446e-07 4.63217e-06 21.0591 5.63844 -13.9977 12.9945 -0.242716 -4.98039 86.9598 10.4511 -88.6805 -5.34813 -1.25947e-06 -3.79883e-06 -63.5062 15.5766 3.98007 -24.3289 0.000322201 -8.65921e-06 -2.82557 -2.49 -48.6321 -22.2915 -0.000108084 -4.47941e-06 15.3615 5.55885 -9.13161 -2.19248 -6.46944 -1.22534e-07 -177.779 -1.60834 -32.989 39.0811 -6.73843e-06 -1.23785e-05 0.00363759 -0.0605439 3.87014 40.9854 -6.48686e-06 -1.26872e-05 -3.73289 2.23795 -45.6374 11.7543 -2.30145e-07 3.05095e-06 -0.0344 0.0520546 -15.6399 -2.19251 6.46944 -1.45247e-06 -174.049 12.2957 146.934 -39.0811 -0.00228153 -0.0401928 -0.000298711 -0.0379119 1.07789 -40.9854 7.72618e-06 5.99936e-06 -0.795259 6.21852 -43.2706 -11.7543 -5.6619e-06 -5.58687e-06 -0.128349 0.139248 -15.1808 
0 0 0 0 0 -0 -1.42676 94.1379 -16.3112 90.3062 0.854878 -22.7926 15.7357 5.1072e-06 -5.51765e-07 87.4135 78.3504 -86.9323 8.98455 -0.406207 -4.3199e-07 15.5157 -1.00433 1.10019 16.3773 -1.3905e-06 -6.99897e-07 17.5265 -1.76514 -0.268689 6.45672 -1.25837e-06 -1.02172e-07 15.5358 -2.20972 -1.27256 12.9942 -0.242716 4.98039 -92.6343 8.88567 -88.4132 5.34809 -7.22636e-06 -6.2814e-07 -65.0278 14.2384 2.07238 24.3286 1.87007e-05 4.90208e-06 -11.2926 -9.82796 -49.4765 22.2916 -9.88446e-07 4.63217e-06 21.0639 5.63696 -13.8751 12.9945 -0.242716 -4.98039 86.9633 10.4465 -88.6915 -5.34813 -1.25947e-06 -3.79883e-06 -63.4655 15.5303 3.8909 -24.3289 0.000322201 -8.65921e-06 -2.7393 -2.4479 -48.233 -22.2915 -0.000108084 -4.47941e-06 15.2932 5.55773 -9.07613 -2.19248 -6.46944 -1.22534e-07 -177.898 -1.7302 -32.3519 39.0811 -6.73843e-06 -1.23785e-05 0.00354598 -0.0602825 3.8702 40.9854 -6.48686e-06 -1.26872e-05 -3.68472 2.34073 -45.7951 11.7543 -2.30145e-07 3.05095e-06 -0.0379615 0.0573475 -15.5441 -2.19251 6.46944 -1.45247e-06 -174.063 12.6247 147.461 -39.0811 -0.00228153 -0.0401928 -0.00165456 -0.0384858 1.20185 -40.9854 7.72618e-06 5.99936e-06 -0.833228 6.58504 -43.3993 -11.7543 -5.6619e-06 -5.58687e-06 -0.13216 0.143291 -15.1399 
